<?xml version="1.0" standalone="no"?>
<!DOCTYPE svg PUBLIC "-//W3C//DTD SVG 1.1//EN" "http://www.w3.org/Graphics/SVG/1.1/DTD/svg11.dtd">
<!--Generator: Xara Designer (www.xara.com), SVG filter version: 6.5.0.22-->
<svg fill="none" fill-rule="evenodd" stroke="black" stroke-width="0.501" stroke-linejoin="bevel" stroke-miterlimit="10" font-family="Times New Roman" font-size="16" style="font-variant-ligatures:none" xmlns:xlink="http://www.w3.org/1999/xlink" xmlns="http://www.w3.org/2000/svg" version="1.1" overflow="visible" width="446.531pt" height="119.218pt" viewBox="74.373 -663.646 446.531 119.218">
 <defs>
	</defs>
 <g id="Layer 1" transform="scale(1 -1)">
  <g id="Group" stroke="none">
   <g id="Group_1">
    <g id="Group_2" fill="#ff0000">
     <path d="M 127.48,544.919 C 127.208,545.253 127.1,545.581 127.153,545.908 L 132.891,600.965 C 132.944,601.291 133.042,601.51 133.183,601.619 C 133.313,601.732 133.546,601.779 133.874,601.779 L 145.506,601.779 C 145.838,601.779 146.135,601.619 146.411,601.291 C 146.682,600.965 146.795,600.636 146.738,600.308 L 140.999,545.253 C 140.946,544.919 140.855,544.703 140.71,544.594 C 140.574,544.49 140.348,544.428 140.017,544.428 L 128.379,544.428 C 128.057,544.428 127.758,544.594 127.48,544.919 Z" fill-rule="nonzero" stroke-linecap="round" stroke-width="2.045" stroke-linejoin="round" marker-start="none" marker-end="none"/>
     <path d="M 223.92,544.923 C 223.646,545.257 223.514,545.584 223.514,545.909 L 227.935,587.936 L 210.73,587.936 C 210.402,587.936 210.092,588.103 209.791,588.427 C 209.493,588.759 209.364,589.089 209.42,589.412 L 210.65,601.049 C 210.707,601.375 210.798,601.598 210.937,601.703 C 211.072,601.812 211.305,601.864 211.63,601.864 L 260.71,601.864 C 261.041,601.864 261.337,601.703 261.611,601.375 C 261.882,601.049 261.997,600.725 261.939,600.392 L 260.796,588.759 C 260.736,588.427 260.645,588.214 260.503,588.103 C 260.368,587.993 260.138,587.936 259.804,587.936 L 241.863,587.936 L 237.439,545.257 C 237.386,544.923 237.302,544.705 237.199,544.596 C 237.086,544.49 236.841,544.428 236.459,544.428 L 224.906,544.428 C 224.522,544.428 224.195,544.596 223.92,544.923 Z" fill-rule="nonzero" stroke-linecap="round" stroke-width="2.045" stroke-linejoin="round" marker-start="none" marker-end="none"/>
     <path d="M 265.754,544.919 C 265.483,545.253 265.37,545.581 265.425,545.908 L 271.161,600.965 C 271.222,601.291 271.315,601.51 271.454,601.619 C 271.59,601.732 271.82,601.779 272.148,601.779 L 318.36,601.779 C 318.736,601.779 319.068,601.619 319.343,601.291 C 319.612,600.965 319.727,600.636 319.671,600.308 L 318.687,590.315 C 318.633,589.985 318.536,589.764 318.396,589.659 C 318.261,589.546 318.005,589.497 317.619,589.497 L 283.944,589.497 L 282.797,579.175 L 309.018,579.175 C 309.397,579.175 309.713,579.008 309.96,578.679 C 310.206,578.351 310.301,578.023 310.243,577.695 L 309.266,567.702 C 309.207,567.375 309.129,567.152 309.018,567.046 C 308.906,566.934 308.661,566.881 308.28,566.881 L 281.57,566.881 L 280.424,556.721 L 313.61,556.721 C 313.983,556.721 314.31,556.559 314.59,556.231 C 314.862,555.901 314.999,555.572 314.999,555.24 L 313.935,545.253 C 313.879,544.919 313.785,544.703 313.65,544.594 C 313.509,544.49 313.255,544.428 312.867,544.428 L 266.659,544.428 C 266.331,544.428 266.03,544.594 265.754,544.919 Z" fill-rule="nonzero" stroke-linecap="round" stroke-width="2.045" stroke-linejoin="round" marker-start="none" marker-end="none"/>
     <path d="M 325.152,546.358 C 323.815,547.64 323.145,549.406 323.145,551.642 C 323.145,552.182 323.17,552.628 323.228,552.956 L 327.49,593.921 C 327.762,596.594 328.622,598.576 330.075,599.859 C 331.519,601.141 333.582,601.779 336.256,601.779 L 373.862,601.779 C 376.266,601.779 378.14,601.141 379.477,599.859 C 380.818,598.576 381.486,596.817 381.486,594.576 C 381.486,594.031 381.454,593.596 381.403,593.264 L 380.335,582.696 C 380.281,582.366 380.196,582.151 380.086,582.041 C 379.984,581.928 379.731,581.879 379.35,581.879 L 367.716,581.879 C 367.391,581.879 367.09,582.041 366.815,582.366 C 366.542,582.696 366.433,583.02 366.489,583.349 L 366.9,587.283 C 366.951,588.103 366.829,588.679 366.533,589.004 C 366.229,589.33 365.669,589.497 364.854,589.497 L 343.873,589.497 C 342.996,589.497 342.281,589.221 341.702,588.679 C 341.125,588.128 340.787,587.447 340.68,586.628 L 337.727,558.932 C 337.677,558.112 337.798,557.541 338.097,557.215 C 338.402,556.887 338.986,556.721 339.863,556.721 L 360.835,556.721 C 361.654,556.721 362.352,556.991 362.924,557.541 C 363.499,558.089 363.838,558.771 363.95,559.592 L 364.603,565.654 L 352.969,565.654 C 352.588,565.654 352.272,565.8 352.027,566.1 C 351.782,566.406 351.686,566.744 351.742,567.126 L 352.481,574.497 C 352.534,574.83 352.613,575.048 352.721,575.157 C 352.836,575.262 353.079,575.321 353.463,575.321 L 378.128,575.321 C 378.451,575.321 378.754,575.157 379.024,574.83 C 379.297,574.497 379.433,574.175 379.433,573.844 L 377.137,552.295 C 376.869,549.617 376.005,547.64 374.559,546.358 C 373.112,545.073 371.05,544.428 368.373,544.428 L 330.763,544.428 C 328.364,544.428 326.491,545.073 325.152,546.358 Z" fill-rule="nonzero" stroke-linecap="round" stroke-width="2.045" stroke-linejoin="round" marker-start="none" marker-end="none"/>
     <path d="M 385.284,544.919 C 385.015,545.253 384.903,545.581 384.957,545.908 L 390.688,600.965 C 390.746,601.291 390.847,601.51 390.982,601.619 C 391.119,601.732 391.354,601.779 391.68,601.779 L 436.333,601.779 C 438.736,601.779 440.611,601.141 441.946,599.859 C 443.281,598.576 443.952,596.817 443.952,594.576 C 443.952,594.031 443.923,593.596 443.867,593.264 L 442.396,578.842 C 442.124,576.223 441.306,574.23 439.936,572.862 C 438.57,571.501 436.547,570.812 433.87,570.812 L 433.22,570.325 C 435.732,570.325 437.599,569.665 438.833,568.354 C 440.059,567.046 440.673,565.267 440.673,563.031 C 440.673,562.486 440.644,562.044 440.596,561.716 L 438.869,545.253 C 438.813,544.919 438.736,544.703 438.623,544.594 C 438.518,544.49 438.269,544.428 437.889,544.428 L 426.251,544.428 C 425.928,544.428 425.624,544.594 425.348,544.919 C 425.077,545.253 424.972,545.581 425.022,545.908 L 426.663,562.128 C 426.774,563.058 426.635,563.726 426.251,564.139 C 425.873,564.551 425.182,564.751 424.205,564.751 L 400.857,564.751 L 398.807,545.253 C 398.753,544.919 398.659,544.703 398.517,544.594 C 398.381,544.49 398.155,544.428 397.819,544.428 L 386.19,544.428 C 385.863,544.428 385.561,544.594 385.284,544.919 Z M 427.441,577.983 C 428.125,578.611 428.522,579.385 428.629,580.322 L 429.368,587.283 C 429.417,588.103 429.299,588.679 428.998,589.004 C 428.702,589.33 428.135,589.497 427.32,589.497 L 403.475,589.497 L 402.164,577.042 L 425.022,577.042 C 425.953,577.042 426.759,577.351 427.441,577.983 Z" fill-rule="nonzero" stroke-linecap="round" stroke-width="2.045" stroke-linejoin="round" marker-start="none" marker-end="none"/>
     <path d="M 449.422,546.351 C 448.08,547.64 447.412,549.406 447.412,551.639 C 447.412,552.182 447.441,552.628 447.487,552.956 L 451.913,595.558 C 452.195,598.232 453.052,600.21 454.503,601.494 C 455.947,602.781 458.007,603.425 460.684,603.425 L 498.29,603.425 C 500.693,603.425 502.564,602.781 503.902,601.494 C 505.241,600.21 505.91,598.452 505.91,596.21 C 505.91,595.666 505.885,595.232 505.829,594.902 L 501.404,552.295 C 501.133,549.617 500.273,547.64 498.824,546.351 C 497.376,545.073 495.315,544.428 492.638,544.428 L 455.03,544.428 C 452.627,544.428 450.753,545.073 449.422,546.351 Z M 487.193,557.541 C 487.763,558.082 488.106,558.769 488.214,559.592 L 491.329,588.921 C 491.384,589.74 491.26,590.315 490.959,590.643 C 490.658,590.971 490.1,591.132 489.278,591.132 L 468.303,591.132 C 467.43,591.132 466.704,590.864 466.135,590.315 C 465.56,589.764 465.216,589.085 465.108,588.266 L 461.993,558.928 C 461.94,558.112 462.064,557.541 462.361,557.215 C 462.662,556.887 463.248,556.718 464.125,556.718 L 485.101,556.718 C 485.919,556.718 486.615,556.991 487.193,557.541 Z" fill-rule="nonzero" stroke-linecap="round" stroke-width="2.045" stroke-linejoin="round" marker-start="none" marker-end="none"/>
     <path d="M 150.216,545.216 L 156.372,600.887 C 156.489,601.686 156.992,601.779 157.654,601.784 L 167.325,601.812 C 169.642,598.968 173.082,595.749 177.846,592.19 L 170.96,592.124 C 169.973,591.939 169.219,591.413 168.903,590.243 L 163.477,545.131 C 163.402,544.506 163.122,544.421 162.657,544.428 L 151.212,544.428 C 150.631,544.426 150.165,544.62 150.216,545.216 Z M 188.252,545.777 L 192.893,586.109 C 193.139,585.926 193.386,585.742 193.641,585.557 C 193.397,585.831 193.156,586.101 192.924,586.373 L 192.927,586.393 L 193.275,589.404 C 193.622,591.498 192.859,592.324 191.374,592.324 L 188.439,592.292 L 188.431,592.292 C 186.057,596.011 184.961,599.255 185.448,601.867 L 185.465,601.867 L 197.244,601.905 C 202.529,601.905 208.841,601.13 208.054,594.405 L 202.178,545.428 C 202.109,544.805 201.835,544.428 201.021,544.428 L 189.561,544.428 C 188.613,544.447 188.188,544.758 188.252,545.777 Z M 171.42,601.824 L 171.451,601.826 L 178.948,601.846 C 179.688,599.201 181.79,595.991 185.603,592.265 L 178.08,592.192 L 178.066,592.192 C 174.994,595.712 172.718,598.954 171.42,601.824 Z" stroke-linejoin="miter" marker-start="none" marker-end="none"/>
    </g>
    <g id="Group_3" fill="#ff0000" stroke-linejoin="miter">
     <path d="M 127.499,619.423 C 121.678,626.237 123.185,633.05 130.868,634.624 C 138.552,636.198 149.515,631.942 155.34,625.128 C 161.161,618.313 159.657,611.498 151.972,609.925 C 144.289,608.353 133.325,612.607 127.499,619.423 Z" marker-start="none" marker-end="none"/>
     <path d="M 92.279,622.374 C 121.2,626.769 136.525,608.251 120.935,593.32 C 125.848,608.173 112.934,621.309 92.279,622.374 Z" marker-start="none" marker-end="none"/>
     <path d="M 76.771,617.015 C 108.177,621.79 124.816,601.682 107.885,585.468 C 113.224,601.598 99.202,615.856 76.771,617.015 Z" marker-start="none" marker-end="none"/>
     <path d="M 113.123,650.291 C 124.993,639.229 140.014,638.545 146.385,648.742 C 145.757,632.521 126.152,631.851 113.123,650.291 Z" marker-start="none" marker-end="none"/>
     <path d="M 107.962,661.677 C 120.847,649.66 137.161,648.929 144.09,659.995 C 143.407,642.378 122.103,641.658 107.962,661.677 Z" marker-start="none" marker-end="none"/>
     <path d="M 176.399,592.307 C 149.721,611.914 162.94,621.354 182.662,615.628 C 163.926,614.625 164.876,605.308 176.399,592.307 Z" marker-start="none" marker-end="none"/>
     <path d="M 191.553,586.14 C 164.876,605.754 178.098,615.191 197.816,609.463 C 179.083,608.467 180.037,599.145 191.553,586.14 Z" marker-start="none" marker-end="none"/>
    </g>
    <g id="Group_4" fill="#00017f" stroke-linejoin="miter">
     <path d="M 125.131,617.252 C 119.118,624.289 120.311,631.327 127.624,633.467 C 122.885,630.841 122.618,625.133 127.497,619.423 C 133.319,612.607 144.286,608.353 151.969,609.925 C 156.523,610.858 158.909,613.631 158.882,617.16 C 160.169,612.241 157.627,608.152 151.699,606.941 C 143.354,605.23 131.451,609.853 125.131,617.252 Z" marker-start="none" marker-end="none"/>
     <path d="M 89.889,621.122 C 92.651,621.54 95.292,621.754 97.791,621.778 C 114.237,619.022 124.277,608.065 121.522,595.468 C 120.694,594.324 119.701,593.185 118.538,592.07 C 123.459,606.923 110.539,620.055 89.889,621.122 Z" marker-start="none" marker-end="none"/>
     <path d="M 74.373,615.769 C 77.076,616.18 79.671,616.405 82.146,616.465 C 100.475,613.629 111.689,601.486 108.466,587.542 C 107.623,586.423 106.633,585.312 105.491,584.22 C 110.832,600.343 96.805,614.604 74.373,615.769 Z" marker-start="none" marker-end="none"/>
     <path d="M 116.469,647.496 C 115.128,648.911 113.825,650.495 112.584,652.257 C 124.451,641.198 139.471,640.523 145.842,650.711 C 145.795,649.498 145.643,648.372 145.393,647.333 C 139.221,639.477 127.083,639.637 116.469,647.496 Z" marker-start="none" marker-end="none"/>
     <path d="M 111.208,658.938 C 109.903,660.352 108.631,661.923 107.417,663.646 C 120.314,651.635 136.621,650.904 143.544,661.962 C 143.498,660.77 143.357,659.657 143.132,658.62 C 136.384,649.839 122.888,650.059 111.208,658.938 Z" marker-start="none" marker-end="none"/>
     <path d="M 173.826,595.37 C 164.868,606.728 165.427,614.67 182.543,615.619 C 183.263,615.444 183.999,615.253 184.739,615.038 C 166.006,614.043 166.96,604.722 178.48,591.722 C 176.764,592.978 175.216,594.196 173.826,595.37 Z" marker-start="none" marker-end="none"/>
     <path d="M 188.969,589.221 C 180.027,600.575 180.591,608.515 197.707,609.455 C 198.426,609.285 199.156,609.09 199.898,608.879 C 181.162,607.881 182.116,598.557 193.637,585.557 C 191.917,586.82 190.363,588.043 188.969,589.221 Z" marker-start="none" marker-end="none"/>
    </g>
    <g id="Group_5" fill="#00017f" fill-rule="nonzero" stroke-linejoin="round" stroke-linecap="round" stroke-width="0.799">
     <g id="Group_6">
      <path d="M 300.056,606.835 L 300.056,629.736 L 307.515,629.736 C 309.045,629.736 310.372,629.559 311.486,629.202 C 312.608,628.841 313.531,628.339 314.26,627.693 C 314.989,627.052 315.525,626.28 315.876,625.382 C 316.223,624.487 316.399,623.504 316.399,622.437 C 316.399,621.33 316.212,620.31 315.844,619.388 C 315.475,618.463 314.919,617.669 314.18,617.005 C 313.442,616.34 312.518,615.823 311.411,615.451 C 310.301,615.083 309.002,614.898 307.515,614.898 L 304.313,614.898 L 304.313,606.835 L 300.056,606.835 Z M 309.557,618.517 C 310.136,618.712 310.616,618.992 310.999,619.356 C 311.379,619.72 311.663,620.163 311.852,620.685 C 312.042,621.209 312.137,621.79 312.137,622.437 C 312.137,623.048 312.042,623.603 311.852,624.1 C 311.663,624.596 311.379,625.017 310.999,625.369 C 310.616,625.715 310.136,625.982 309.557,626.167 C 308.975,626.35 308.295,626.444 307.515,626.444 L 304.313,626.444 L 304.313,618.22 L 307.515,618.22 C 308.295,618.22 308.975,618.32 309.557,618.517 Z" marker-start="none" marker-end="none"/>
      <path d="M 319.74,606.839 L 319.74,630.372 L 323.652,630.372 L 323.652,606.839 L 319.74,606.839 Z" marker-start="none" marker-end="none"/>
      <path d="M 330.08,606.865 C 329.499,607.048 329,607.326 328.585,607.697 C 328.166,608.067 327.843,608.529 327.608,609.081 C 327.378,609.629 327.261,610.271 327.261,611.002 C 327.261,611.619 327.422,612.225 327.745,612.823 C 328.065,613.42 328.602,613.96 329.352,614.445 C 330.102,614.927 331.1,615.326 332.343,615.642 C 333.591,615.961 335.137,616.119 336.985,616.119 L 336.985,617.08 C 336.985,618.175 336.755,618.987 336.295,619.513 C 335.836,620.04 335.169,620.302 334.293,620.302 C 333.66,620.302 333.132,620.23 332.711,620.08 C 332.287,619.934 331.921,619.766 331.608,619.583 C 331.297,619.399 331.008,619.233 330.746,619.082 C 330.482,618.936 330.191,618.861 329.873,618.861 C 329.609,618.861 329.383,618.93 329.193,619.065 C 329.002,619.203 328.849,619.372 328.734,619.572 L 328.021,620.819 C 329.89,622.531 332.144,623.388 334.784,623.388 C 335.733,623.388 336.582,623.236 337.327,622.921 C 338.071,622.612 338.702,622.178 339.216,621.624 C 339.736,621.069 340.13,620.406 340.397,619.636 C 340.668,618.864 340.804,618.019 340.804,617.103 L 340.804,606.837 L 339.044,606.837 C 338.675,606.837 338.384,606.891 338.174,607.004 C 337.963,607.111 337.804,607.332 337.698,607.665 L 337.351,608.8 C 336.938,608.437 336.533,608.119 336.137,607.842 C 335.742,607.565 335.334,607.334 334.912,607.149 C 334.488,606.961 334.041,606.82 333.564,606.725 C 333.089,606.632 332.563,606.584 331.982,606.584 C 331.293,606.584 330.662,606.677 330.08,606.865 Z M 334.31,609.388 C 334.648,609.461 334.967,609.572 335.267,609.718 C 335.568,609.866 335.858,610.05 336.137,610.266 C 336.416,610.481 336.702,610.741 336.985,611.034 L 336.985,613.736 C 335.844,613.736 334.892,613.666 334.127,613.521 C 333.361,613.38 332.745,613.196 332.283,612.972 C 331.818,612.747 331.488,612.484 331.291,612.186 C 331.098,611.888 330.998,611.562 330.998,611.211 C 330.998,610.519 331.203,610.023 331.608,609.724 C 332.015,609.424 332.547,609.274 333.199,609.274 C 333.6,609.274 333.971,609.312 334.31,609.388 Z" marker-start="none" marker-end="none"/>
      <path d="M 346.738,607.782 C 345.978,608.579 345.596,609.676 345.596,611.081 L 345.596,620.157 L 343.951,620.157 C 343.741,620.157 343.557,620.224 343.403,620.36 C 343.251,620.494 343.174,620.697 343.174,620.968 L 343.174,622.496 L 345.788,622.926 L 346.611,627.393 C 346.654,627.603 346.751,627.768 346.902,627.884 C 347.058,628.002 347.251,628.059 347.481,628.059 L 349.508,628.059 L 349.508,622.94 L 353.785,622.94 L 353.785,620.157 L 349.508,620.157 L 349.508,611.355 C 349.508,610.847 349.635,610.452 349.89,610.165 C 350.142,609.883 350.482,609.74 350.904,609.74 C 351.147,609.74 351.349,609.768 351.512,609.826 C 351.677,609.885 351.82,609.946 351.942,610.01 C 352.062,610.071 352.169,610.132 352.263,610.193 C 352.359,610.248 352.456,610.278 352.55,610.278 C 352.667,610.278 352.762,610.248 352.836,610.191 C 352.909,610.132 352.986,610.044 353.071,609.93 L 354.243,608.025 C 353.673,607.552 353.017,607.193 352.282,606.949 C 351.542,606.706 350.777,606.584 349.985,606.584 C 348.582,606.584 347.499,606.984 346.738,607.782 Z" marker-start="none" marker-end="none"/>
      <path d="M 358.923,606.865 C 358.342,607.048 357.842,607.326 357.426,607.697 C 357.007,608.067 356.683,608.529 356.45,609.081 C 356.219,609.629 356.102,610.271 356.102,611.002 C 356.102,611.619 356.264,612.225 356.586,612.823 C 356.907,613.42 357.446,613.96 358.194,614.445 C 358.942,614.927 359.942,615.326 361.185,615.642 C 362.431,615.961 363.978,616.119 365.827,616.119 L 365.827,617.08 C 365.827,618.175 365.597,618.987 365.137,619.513 C 364.678,620.04 364.01,620.302 363.133,620.302 C 362.5,620.302 361.973,620.23 361.552,620.08 C 361.128,619.934 360.763,619.766 360.449,619.583 C 360.139,619.399 359.85,619.233 359.586,619.082 C 359.324,618.936 359.033,618.861 358.717,618.861 C 358.452,618.861 358.226,618.93 358.036,619.065 C 357.844,619.203 357.694,619.372 357.575,619.572 L 356.863,620.819 C 358.732,622.531 360.986,623.388 363.626,623.388 C 364.576,623.388 365.424,623.236 366.169,622.921 C 366.913,622.612 367.542,622.178 368.06,621.624 C 368.577,621.069 368.972,620.406 369.24,619.636 C 369.511,618.864 369.645,618.019 369.645,617.103 L 369.645,606.837 L 367.888,606.837 C 367.519,606.837 367.226,606.891 367.015,607.004 C 366.805,607.111 366.645,607.332 366.539,607.665 L 366.193,608.8 C 365.78,608.437 365.375,608.119 364.98,607.842 C 364.583,607.565 364.176,607.334 363.751,607.149 C 363.328,606.961 362.881,606.82 362.404,606.725 C 361.932,606.632 361.405,606.584 360.822,606.584 C 360.137,606.584 359.504,606.677 358.923,606.865 Z M 363.149,609.388 C 363.49,609.461 363.808,609.572 364.109,609.718 C 364.409,609.866 364.702,610.05 364.98,610.266 C 365.26,610.481 365.543,610.741 365.827,611.034 L 365.827,613.736 C 364.685,613.736 363.732,613.666 362.969,613.521 C 362.202,613.38 361.587,613.196 361.123,612.972 C 360.661,612.747 360.329,612.484 360.135,612.186 C 359.941,611.888 359.839,611.562 359.839,611.211 C 359.839,610.519 360.044,610.023 360.449,609.724 C 360.858,609.424 361.388,609.274 362.043,609.274 C 362.444,609.274 362.815,609.312 363.149,609.388 Z" marker-start="none" marker-end="none"/>
      <path d="M 374.187,606.835 L 374.187,620.139 L 372.777,620.36 C 372.471,620.413 372.225,620.52 372.04,620.678 C 371.855,620.836 371.764,621.057 371.764,621.34 L 371.764,622.94 L 374.187,622.94 L 374.187,624.144 C 374.187,625.072 374.325,625.909 374.605,626.648 C 374.886,627.386 375.289,628.015 375.809,628.533 C 376.33,629.051 376.968,629.446 377.718,629.721 C 378.467,629.994 379.313,630.131 380.251,630.131 C 381.001,630.131 381.698,630.033 382.341,629.832 L 382.264,627.867 C 382.242,627.559 382.099,627.371 381.835,627.297 C 381.571,627.223 381.263,627.186 380.916,627.186 C 380.45,627.186 380.038,627.136 379.674,627.036 C 379.311,626.937 379,626.761 378.748,626.513 C 378.493,626.266 378.301,625.939 378.17,625.529 C 378.037,625.125 377.972,624.619 377.972,624.016 L 377.972,622.94 L 382.2,622.94 L 382.2,620.157 L 378.099,620.157 L 378.099,606.835 L 374.187,606.835 Z" marker-start="none" marker-end="none"/>
      <path d="M 388.219,607.186 C 387.228,607.577 386.381,608.136 385.68,608.865 C 384.977,609.593 384.432,610.476 384.047,611.51 C 383.662,612.545 383.469,613.708 383.469,614.996 C 383.469,616.275 383.662,617.426 384.047,618.463 C 384.432,619.499 384.977,620.377 385.68,621.094 C 386.381,621.812 387.228,622.367 388.219,622.756 C 389.214,623.147 390.314,623.342 391.53,623.342 C 392.744,623.342 393.846,623.147 394.831,622.756 C 395.819,622.367 396.661,621.812 397.36,621.094 C 398.055,620.377 398.595,619.499 398.973,618.463 C 399.354,617.426 399.544,616.275 399.544,614.996 C 399.544,613.708 399.354,612.545 398.973,611.51 C 398.595,610.476 398.055,609.593 397.36,608.865 C 396.661,608.136 395.819,607.577 394.831,607.186 C 393.846,606.794 392.744,606.601 391.53,606.601 C 390.314,606.601 389.214,606.794 388.219,607.186 Z M 394.533,610.971 C 395.181,611.88 395.506,613.212 395.506,614.961 C 395.506,616.715 395.181,618.05 394.533,618.972 C 393.883,619.89 392.881,620.349 391.53,620.349 C 390.157,620.349 389.145,619.886 388.489,618.966 C 387.835,618.038 387.506,616.707 387.506,614.961 C 387.506,613.222 387.835,611.893 388.489,610.979 C 389.145,610.066 390.157,609.61 391.53,609.61 C 392.881,609.61 393.883,610.064 394.533,610.971 Z" marker-start="none" marker-end="none"/>
      <path d="M 402.594,606.839 L 402.594,623.087 L 404.89,623.087 C 405.292,623.087 405.572,623.014 405.731,622.866 C 405.887,622.715 405.995,622.465 406.046,622.104 L 406.283,620.137 C 406.864,621.141 407.545,621.935 408.327,622.516 C 409.108,623.099 409.985,623.388 410.956,623.388 C 411.76,623.388 412.426,623.189 412.952,622.786 L 412.446,619.9 C 412.411,619.713 412.345,619.58 412.239,619.502 C 412.134,619.425 411.991,619.385 411.811,619.385 C 411.652,619.385 411.437,619.423 411.162,619.496 C 410.887,619.572 410.524,619.608 410.068,619.608 C 409.259,619.608 408.561,619.383 407.979,618.934 C 407.399,618.485 406.905,617.824 406.506,616.962 L 406.506,606.839 L 402.594,606.839 Z" marker-start="none" marker-end="none"/>
      <path d="M 415.538,606.839 L 415.538,623.087 L 417.932,623.087 C 418.437,623.087 418.77,622.848 418.927,622.371 L 419.179,621.161 C 419.467,621.481 419.764,621.771 420.077,622.035 C 420.386,622.303 420.72,622.529 421.075,622.721 C 421.428,622.913 421.807,623.063 422.214,623.176 C 422.619,623.288 423.065,623.342 423.553,623.342 C 424.576,623.342 425.421,623.066 426.08,622.511 C 426.739,621.957 427.232,621.222 427.56,620.302 C 427.812,620.842 428.131,621.304 428.509,621.689 C 428.89,622.076 429.306,622.387 429.761,622.631 C 430.215,622.875 430.697,623.053 431.209,623.169 C 431.721,623.285 432.237,623.342 432.754,623.342 C 433.653,623.342 434.451,623.206 435.144,622.931 C 435.843,622.657 436.428,622.256 436.903,621.727 C 437.378,621.199 437.742,620.555 437.989,619.796 C 438.235,619.034 438.362,618.166 438.362,617.182 L 438.362,606.839 L 434.451,606.839 L 434.451,617.185 C 434.451,618.217 434.223,618.997 433.767,619.519 C 433.312,620.043 432.649,620.302 431.772,620.302 C 431.37,620.302 430.998,620.234 430.653,620.097 C 430.313,619.96 430.011,619.761 429.754,619.502 C 429.495,619.246 429.291,618.92 429.145,618.531 C 428.995,618.139 428.922,617.688 428.922,617.185 L 428.922,606.839 L 424.994,606.839 L 424.994,617.185 C 424.994,618.27 424.776,619.061 424.336,619.559 C 423.897,620.055 423.251,620.302 422.396,620.302 C 421.835,620.302 421.312,620.163 420.819,619.883 C 420.33,619.603 419.872,619.22 419.451,618.733 L 419.451,606.839 L 415.538,606.839 Z" marker-start="none" marker-end="none"/>
      <path d="M 444.213,606.865 C 443.632,607.048 443.132,607.326 442.716,607.697 C 442.297,608.067 441.975,608.529 441.741,609.081 C 441.509,609.629 441.393,610.271 441.393,611.002 C 441.393,611.619 441.554,612.225 441.879,612.823 C 442.198,613.42 442.734,613.96 443.484,614.445 C 444.234,614.927 445.233,615.326 446.476,615.642 C 447.724,615.961 449.267,616.119 451.117,616.119 L 451.117,617.08 C 451.117,618.175 450.889,618.987 450.429,619.513 C 449.968,620.04 449.299,620.302 448.424,620.302 C 447.791,620.302 447.265,620.23 446.841,620.08 C 446.418,619.934 446.053,619.766 445.739,619.583 C 445.429,619.399 445.141,619.233 444.878,619.082 C 444.616,618.936 444.321,618.861 444.007,618.861 C 443.74,618.861 443.515,618.93 443.325,619.065 C 443.134,619.203 442.982,619.372 442.867,619.572 L 442.153,620.819 C 444.023,622.531 446.276,623.388 448.916,623.388 C 449.864,623.388 450.715,623.236 451.46,622.921 C 452.202,622.612 452.835,622.178 453.349,621.624 C 453.868,621.069 454.261,620.406 454.531,619.636 C 454.801,618.864 454.935,618.019 454.935,617.103 L 454.935,606.837 L 453.176,606.837 C 452.807,606.837 452.514,606.891 452.306,607.004 C 452.094,607.111 451.935,607.332 451.83,607.665 L 451.483,608.8 C 451.069,608.437 450.665,608.119 450.27,607.842 C 449.874,607.565 449.465,607.334 449.042,607.149 C 448.618,606.961 448.174,606.82 447.697,606.725 C 447.22,606.632 446.694,606.584 446.114,606.584 C 445.427,606.584 444.793,606.677 444.213,606.865 Z M 448.44,609.388 C 448.781,609.461 449.097,609.572 449.401,609.718 C 449.7,609.866 449.991,610.05 450.27,610.266 C 450.549,610.481 450.835,610.741 451.117,611.034 L 451.117,613.736 C 449.975,613.736 449.025,613.666 448.258,613.521 C 447.494,613.38 446.879,613.196 446.413,612.972 C 445.95,612.747 445.62,612.484 445.424,612.186 C 445.229,611.888 445.13,611.562 445.13,611.211 C 445.13,610.519 445.335,610.023 445.739,609.724 C 446.149,609.424 446.679,609.274 447.334,609.274 C 447.732,609.274 448.104,609.312 448.44,609.388 Z" marker-start="none" marker-end="none"/>
      <path d="M 465.63,606.839 L 465.63,629.736 L 469.907,629.736 L 469.907,606.839 L 465.63,606.839 Z" marker-start="none" marker-end="none"/>
      <path d="M 478.457,607.186 C 477.466,607.577 476.62,608.136 475.917,608.865 C 475.217,609.593 474.672,610.476 474.285,611.51 C 473.902,612.545 473.706,613.708 473.706,614.996 C 473.706,616.275 473.902,617.426 474.285,618.463 C 474.672,619.499 475.217,620.377 475.917,621.094 C 476.62,621.812 477.466,622.367 478.457,622.756 C 479.451,623.147 480.553,623.342 481.768,623.342 C 482.983,623.342 484.084,623.147 485.071,622.756 C 486.061,622.367 486.9,621.812 487.597,621.094 C 488.294,620.377 488.833,619.499 489.212,618.463 C 489.592,617.426 489.781,616.275 489.781,614.996 C 489.781,613.708 489.592,612.545 489.212,611.51 C 488.833,610.476 488.294,609.593 487.597,608.865 C 486.9,608.136 486.061,607.577 485.071,607.186 C 484.084,606.794 482.983,606.601 481.768,606.601 C 480.553,606.601 479.451,606.794 478.457,607.186 Z M 484.769,610.971 C 485.42,611.88 485.743,613.212 485.743,614.961 C 485.743,616.715 485.42,618.05 484.769,618.972 C 484.12,619.89 483.119,620.349 481.768,620.349 C 480.396,620.349 479.383,619.886 478.727,618.966 C 478.074,618.038 477.744,616.707 477.744,614.961 C 477.744,613.222 478.074,611.893 478.727,610.979 C 479.383,610.066 480.396,609.61 481.768,609.61 C 483.119,609.61 484.12,610.064 484.769,610.971 Z" marker-start="none" marker-end="none"/>
      <path d="M 498.043,606.839 L 498.043,626.241 L 491.123,626.241 L 491.123,629.745 L 509.193,629.745 L 509.193,626.241 L 502.303,626.241 L 502.303,606.839 L 498.043,606.839 Z" marker-start="none" marker-end="none"/>
     </g>
    </g>
   </g>
   <g id="Group_7" font-size="8.871" font-family="Lato Black" fill="#ff0000">
    <text xml:space="preserve" transform="translate(512.413 605.599) scale(1 -1)" kerning="auto" stroke-linecap="round" stroke-linejoin="round" stroke-width="0.221"><tspan x="0" y="0">R</tspan></text>
    <path d="M 510.907,604.817 C 508.622,607.104 508.622,610.814 510.907,613.1 C 513.193,615.385 516.904,615.385 519.189,613.1 C 521.476,610.814 521.476,607.104 519.189,604.817 C 516.904,602.531 513.193,602.531 510.907,604.817 Z M 518.548,605.46 C 520.479,607.39 520.479,610.526 518.548,612.456 C 516.616,614.388 513.48,614.388 511.55,612.456 C 509.619,610.526 509.619,607.39 511.55,605.46 C 513.48,603.529 516.616,603.529 518.548,605.46 Z" stroke-width="0.304" fill-rule="evenodd" marker-start="none" marker-end="none"/>
   </g>
  </g>
 </g>
</svg>
